<?xml version="1.0" encoding="UTF-8" standalone="no"?>
<!-- Created with Inkscape (http://www.inkscape.org/) -->

<svg
   xmlns:dc="http://purl.org/dc/elements/1.1/"
   xmlns:cc="http://creativecommons.org/ns#"
   xmlns:rdf="http://www.w3.org/1999/02/22-rdf-syntax-ns#"
   xmlns:svg="http://www.w3.org/2000/svg"
   xmlns="http://www.w3.org/2000/svg"
   xmlns:sodipodi="http://sodipodi.sourceforge.net/DTD/sodipodi-0.dtd"
   xmlns:inkscape="http://www.inkscape.org/namespaces/inkscape"
   width="210mm"
   height="297mm"
   viewBox="0 0 210 297"
   version="1.1"
   id="svg8"
   enable-background="new"
   inkscape:version="0.92.4 5da689c313, 2019-01-14"
   sodipodi:docname="Logo sketch.svg">
  <defs
     id="defs2">
    <filter
       inkscape:collect="always"
       style="color-interpolation-filters:sRGB"
       id="filter1253">
      <feBlend
         inkscape:collect="always"
         mode="darken"
         in2="BackgroundImage"
         id="feBlend1255" />
    </filter>
  </defs>
  <sodipodi:namedview
     id="base"
     pagecolor="#ffffff"
     bordercolor="#666666"
     borderopacity="1.0"
     inkscape:pageopacity="0.0"
     inkscape:pageshadow="2"
     inkscape:zoom="1.4"
     inkscape:cx="188.37708"
     inkscape:cy="614.3015"
     inkscape:document-units="mm"
     inkscape:current-layer="layer1"
     showgrid="false"
     inkscape:window-width="1366"
     inkscape:window-height="660"
     inkscape:window-x="0"
     inkscape:window-y="27"
     inkscape:window-maximized="1" />
  <metadata
     id="metadata5">
    <rdf:RDF>
      <cc:Work
         rdf:about="">
        <dc:format>image/svg+xml</dc:format>
        <dc:type
           rdf:resource="http://purl.org/dc/dcmitype/StillImage" />
        <dc:title />
      </cc:Work>
    </rdf:RDF>
  </metadata>
  <g
     inkscape:groupmode="layer"
     id="layer2"
     inkscape:label="Layer 2">
    <path
       style="fill:#e0dce4;fill-opacity:1;stroke:none;stroke-width:0.24123491px;stroke-linecap:butt;stroke-linejoin:miter;stroke-opacity:1"
       d="m 37.254234,127.37942 c 0,0 -2.114393,-3.87568 -6.519378,-1.51657 -4.404984,2.35911 -1.057195,5.89777 -1.057195,5.89777 0,0 -5.109784,-0.16851 -4.757385,3.37015 0.352398,3.53866 2.642992,3.03314 4.404984,2.86463 1.057199,2.69613 0.1762,3.37016 3.523989,4.2127 3.34779,0.84253 4.581186,-3.03314 4.581186,-3.03314 0,0 1.057195,3.03314 3.347789,3.20164 2.290592,0.16851 6.16698,-1.85357 5.285982,-4.3812 1.409594,0.33702 5.63838,-1.68507 4.757384,-5.89776 -0.704798,-4.3812 -5.109783,-4.21269 -5.109783,-4.21269 0,0 -0.1762,-3.53867 -2.99539,-4.0442 -2.81919,-0.50551 -4.933584,0.67403 -5.462183,3.53867 z"
       id="path1313"
       inkscape:connector-curvature="0"
       sodipodi:nodetypes="cscscscsccccc" />
    <g
       id="g1235">
      <path
         inkscape:connector-curvature="0"
         id="path1177"
         d="m 17.773423,147.39587 c 0,0 -2.646788,-3.48066 0.467722,-5.7463 0.279688,-3.58856 0.80181,-7.75082 3.674956,-10.89123 1.896399,-3.84763 2.873146,-3.14041 2.873146,-3.14041 2.271794,-2.93996 2.204976,-3.67495 5.211756,-1.87088 2.271792,2.00452 3.474503,2.93996 1.403165,5.4122 -2.071338,2.47224 -2.071338,2.47224 -2.071338,2.47224 0,0 0.868627,0.66819 0.06682,2.67271 -0.80181,2.00451 -2.004523,2.20496 -2.004523,2.20496 0,0 2.204974,-0.0668 2.472245,1.80408 0.267269,1.87087 0.06682,3.74177 -0.334087,4.14268 -0.400904,0.4009 -1.737254,0.1336 -2.739514,1.33633 -1.00226,1.20273 -4.610398,2.2718 -6.815372,1.93771 -2.204974,-0.33409 -2.204974,-0.33409 -2.204974,-0.33409"
         style="fill:#fe491b;fill-opacity:1;stroke:none;stroke-width:0.26458332px;stroke-linecap:butt;stroke-linejoin:miter;stroke-opacity:1" />
      <path
         sodipodi:nodetypes="ccscssccsscc"
         inkscape:connector-curvature="0"
         id="path1231"
         d="m 17.773423,147.39587 c 0,0 1.503363,2.28791 4.054702,3.61082 2.551339,1.32292 4.063244,1.7009 8.787947,0.37798 4.724702,-1.32292 2.661061,-4.981 2.094096,-5.54796 -0.566962,-0.56697 -2.444931,-1.62434 -3.061473,-1.61115 -3.414846,0.073 -2.236007,-0.43496 -2.854926,1.56669 -0.618918,2.00165 1.469984,0.60136 1.469984,0.60136 0,0 1.295195,-1.35052 2.38622,-0.13357 0.422846,0.63231 1.005533,3.32924 -2.963217,3.51823 -3.96875,0.18899 -3.779367,0.6767 -5.102481,-2.44922 -1.323115,-3.12593 -4.810852,0.0668 -4.810852,0.0668 z"
         style="fill:#fe491b;fill-opacity:1;stroke:none;stroke-width:0.26458332px;stroke-linecap:butt;stroke-linejoin:miter;stroke-opacity:1" />
    </g>
    <path
       style="opacity:1;vector-effect:none;fill:#e0dce4;fill-opacity:1;stroke:none;stroke-width:0.26499999;stroke-linecap:butt;stroke-linejoin:miter;stroke-miterlimit:4;stroke-dasharray:none;stroke-dashoffset:0;stroke-opacity:1"
       id="path1309"
       d="m 19.379969,132.64624 c 0.483051,0.26266 0.919082,0.59924 1.378459,0.89881 0.149346,0.0974 0.302688,0.1885 0.454033,0.28276 0.513206,0.32267 1.062828,0.57193 1.620871,0.80426 0.523417,0.21793 0.629669,0.26789 1.163801,0.4383 0.192387,0.0614 0.387331,0.11444 0.580996,0.17166 0.736924,0.18667 1.486913,0.31157 2.232198,0.45838 0.115011,0.0464 -0.541737,1.67299 -0.656751,1.62655 v 0 c -0.827163,-0.10185 -1.652532,-0.22545 -2.452045,-0.46987 -0.215284,-0.0661 -0.432184,-0.12707 -0.645851,-0.19818 -1.09701,-0.36512 -2.155577,-0.85684 -3.080925,-1.55699 -0.56246,-0.44944 -1.13565,-0.91177 -1.577807,-1.4853 -0.06862,-0.0695 0.914405,-1.03989 0.983021,-0.97038 z"
       inkscape:connector-curvature="0" />
    <path
       style="opacity:1;vector-effect:none;fill:#e0dce4;fill-opacity:1;stroke:none;stroke-width:0.26499999;stroke-linecap:butt;stroke-linejoin:miter;stroke-miterlimit:4;stroke-dasharray:none;stroke-dashoffset:0;stroke-opacity:1"
       id="path1311"
       d="m 18.539996,135.40599 c 0.500499,0.2292 0.944068,0.56317 1.413539,0.84734 0.158536,0.096 0.319851,0.18725 0.479776,0.28088 1.212133,0.70244 2.54701,1.15684 3.883019,1.55946 0.645685,0.18843 0.343725,0.10165 0.905616,0.26126 0.110013,0.0461 -0.541788,1.60191 -0.651801,1.55582 v 0 c -0.700241,-0.062 -0.330262,-0.0168 -1.108712,-0.14544 -0.241394,-0.0587 -0.485313,-0.10789 -0.724179,-0.17617 -1.271248,-0.36337 -2.45844,-0.96145 -3.522293,-1.74466 -0.596649,-0.45401 -1.189542,-0.92659 -1.692314,-1.48561 -0.06738,-0.0719 0.949971,-1.02482 1.017349,-0.95288 z"
       inkscape:connector-curvature="0" />
  </g>
  <g
     inkscape:label="Layer 1"
     inkscape:groupmode="layer"
     id="layer1"
     style="filter:url(#filter1253)">
    <path
       id="path1122"
       style="opacity:1;vector-effect:none;fill:#000000;fill-opacity:0.8745098;stroke:none;stroke-width:0.26499999;stroke-linecap:butt;stroke-linejoin:miter;stroke-miterlimit:4;stroke-dasharray:none;stroke-dashoffset:0;stroke-opacity:1"
       d="m 32.152186,131.33725 c 0.04058,0.003 0.08151,0.004 0.121745,0.01 0.04651,0.007 0.09122,0.0243 0.13788,0.0306 0.137324,0.0184 0.22878,-0.002 0.362127,0.0484 0.01757,0.007 0.267047,0.16097 0.285679,0.17242 0.130424,0.0949 0.257072,0.22513 0.310343,0.38265 0.01143,0.0338 0.02394,0.15604 0.02828,0.19315 -0.0069,0.0203 -0.01371,0.0406 -0.02056,0.0609 0.0016,0.0122 -0.17163,0.0336 -0.173138,0.0213 v 0 c -0.01201,-0.0148 -0.02402,-0.0296 -0.03602,-0.0444 -0.04744,-0.11847 -0.293582,-0.19514 -0.394153,-0.26462 -0.04315,-0.0223 -0.08535,-0.0466 -0.129455,-0.067 -0.04984,-0.0231 -0.10554,-0.0342 -0.152128,-0.0633 -0.08038,-0.0502 -0.162962,-0.16151 -0.231962,-0.2231 -0.03411,-0.0305 -0.07674,-0.0506 -0.110033,-0.0819 -0.02601,-0.0245 -0.04426,-0.0561 -0.06638,-0.0841 -0.0064,-0.005 0.06134,-0.0957 0.06777,-0.0909 z m 0.34231,-0.76497 c 0.424683,-0.22426 0.76685,-0.17251 1.205426,-0.0271 0.217839,0.0959 0.36712,0.25691 0.494122,0.45093 0.0097,0.0109 -0.144444,0.14796 -0.154135,0.13706 v 0 c -0.184224,-0.0639 -0.380529,-0.0702 -0.573855,-0.0828 -0.352825,-0.0349 -0.729946,-0.0283 -1.032799,-0.23955 -0.01685,-0.004 0.04438,-0.24285 0.06124,-0.23851 z m -7.021322,0.52347 c -0.151088,0.18545 -0.377325,0.26638 -0.592452,0.35235 -0.09037,0.0361 -0.178007,0.0809 -0.272053,0.10589 -0.10672,0.0284 -0.217972,0.0355 -0.326956,0.0533 -0.113276,0.007 -0.22655,0.0134 -0.339826,0.0201 -0.02537,0.0132 -0.211896,-0.34549 -0.186533,-0.35868 v 0 c 0.08967,-0.0499 0.179345,-0.0997 0.26902,-0.14956 0.09368,-0.0402 0.184131,-0.0889 0.281043,-0.12043 0.09265,-0.0302 0.190315,-0.042 0.285234,-0.064 0.250243,-0.058 0.499473,-0.13389 0.759105,-0.0899 0.01775,-0.009 0.141161,0.24219 0.123418,0.25092 z m 0.103275,-0.83873 c -0.03603,0.0198 -0.06981,0.0444 -0.10809,0.0593 -0.08017,0.0313 -0.265306,0.0646 -0.340297,0.0826 -0.230312,0.0553 -0.45892,0.11236 -0.684747,0.18368 -0.339243,0.0973 -0.68938,0.11883 -1.040091,0.10617 -0.01462,0.008 -0.131143,-0.19847 -0.116526,-0.20671 v 0 c 0.262019,-0.2407 0.505822,-0.41667 0.857008,-0.51613 0.14959,-0.0274 0.375134,-0.0717 0.526418,-0.0878 0.08379,-0.009 0.168262,-0.01 0.252344,-0.0152 0.154027,-0.0102 0.277915,-0.0342 0.429744,0.001 0.04894,0.0113 0.09237,0.0396 0.138559,0.0593 0.0236,-0.006 0.109273,0.32763 0.08568,0.33369 z m 3.499855,0.83544 c 0,0 0.868627,-0.4009 1.269531,0.0668 -0.668174,0.60136 -0.668174,0.60136 -0.668174,0.60136 z m 1.258787,-1.67045 c 0,0 0.601356,-1.1359 1.135896,-0.80181 0.200451,0.13363 0.200451,0.73499 -0.06682,0.80181 -0.267269,0.0668 -1.069078,0 -1.069078,0 z m -1.603618,0.0668 c 0,0 -0.868625,-1.5368 -1.536798,-1.26953 -0.668174,0.26727 -0.668174,1.26953 -0.334087,1.40317 0.334087,0.13363 1.870885,-0.13364 1.870885,-0.13364 z m -6.815372,1.26953 c 0,0 0.400905,0.46772 1.269531,-2.67269 0.267268,-0.93545 0.334086,-1.06908 0.935442,-0.735 0.601358,0.33409 0.668173,0.26728 0.668173,0.26728 0,0 -0.334086,-1.33635 -0.133633,-2.33861 0.200451,-1.00226 0.200451,-1.46999 0.534538,-1.33635 0.334087,0.13363 1.403165,1.60362 1.737254,1.80407 -0.06682,-0.40091 -0.06682,-0.60136 -0.06682,-0.60136 0,0 0.601356,-0.53454 1.670434,0.0668 1.069078,0.60136 1.5368,1.5368 1.870887,1.06908 0.334087,-0.46772 0.267269,-1.1359 1.00226,-1.20271 0.06682,0.53453 -0.133636,0.66817 -0.200451,1.46998 -0.06682,0.8018 0.46772,0.53454 0.46772,0.53454 0,0 0,-0.53454 0.267272,-1.26953 0.267268,-0.73499 0.534537,-1.60362 1.00226,-1.73726 -1.069078,-0.20045 -1.603619,0.0668 -2.071339,0.46772 -0.467722,0.40091 -0.734991,0.26727 -1.670436,0.0668 -0.935442,-0.20045 -2.204974,-0.13363 -2.472243,0.20045 -0.935442,-1.00226 -1.403164,-1.67043 -1.804069,-1.53679 -0.868624,1.13589 -1.804069,1.60361 -1.603617,3.14041 0.06682,0.33409 0.06682,0.33409 0.06682,0.33409 0,0 -0.668174,0.53454 -1.469983,1.40316 -0.801808,0.86863 -0.868626,2.13816 0,2.60588 z m 8.218539,11.42577 c 0,0 -0.734991,-3.00678 -2.605878,-2.53906 -1.870888,0.46773 -2.739515,2.33861 -2.739515,2.33861 0,0 0.935445,-2.20497 2.605879,-3.4745 1.069078,-1.20271 1.469982,-2.13816 1.403165,-3.34087 -0.06682,-1.20271 0.334086,-1.80407 -1.069078,-2.00452 -1.403165,-0.20045 -3.474503,-0.53454 -3.474503,-0.53454 0,0 0.868627,-0.86863 1.403164,-0.80181 0.534541,0.0668 1.870888,0.86862 2.539061,0.93544 0.668173,0.0668 1.202714,0.33409 1.870887,-0.20045 0.668174,-0.53454 1.336347,-1.40316 1.336347,-1.40316 0,0 -1.269529,1.9377 -2.071338,2.47224 0.267269,0.4009 0.935442,1.33635 0.534538,2.67269 -0.400905,1.33635 -1.269529,2.00453 -1.269529,2.00453 0,0 1.603615,0.66817 1.737251,2.13815 0.133636,1.46999 -0.200451,1.73725 -0.200451,1.73725 z m -10.156243,5.54585 2.605878,-0.40091 c 0,0 0.868625,2.27179 2.472244,2.47225 1.603616,0.20045 5.144936,0 5.746295,-1.5368 0.601355,-1.5368 0.734991,-3.27406 -0.467723,-3.54133 -1.202714,-0.26726 -2.271792,0.33409 -2.071338,1.67044 -1.00226,-0.40091 -1.469983,-0.60136 -1.469983,-0.60136 0,0 1.135896,-1.80407 2.472243,-1.67043 1.336347,0.13363 4.075861,1.33635 3.942226,3.20723 -0.133636,1.87089 -3.80859,2.87315 -5.078122,3.14042 -1.269529,0.26727 -5.545842,0.93544 -8.15172,-2.73951 z m -0.133635,-16.43708 c 0,0 -2.873147,2.40543 -3.140417,4.07586 -0.267269,1.67043 -0.133634,4.74404 -0.133634,4.74404 0,0 -1.870887,0.53453 -1.870887,2.73951 0,2.20497 3.073599,4.54358 3.073599,4.54358 0,0 -3.207234,-3.87541 -1.937703,-4.74403 1.26953,-0.86863 2.405425,-1.00227 2.405425,-1.00227 0,0 -0.601356,0 -0.534539,-2.73951 0.06682,-2.73951 0,-4.14267 0.534539,-5.14494 0.534539,-1.00226 1.603617,-2.47224 1.603617,-2.47224 z"
       inkscape:connector-curvature="0" />
    <rect
       style="opacity:1;vector-effect:none;fill:#4abcad;fill-opacity:1;stroke:none;stroke-width:0.12450987;stroke-linecap:butt;stroke-linejoin:miter;stroke-miterlimit:4;stroke-dasharray:none;stroke-dashoffset:0;stroke-opacity:1"
       id="rect815"
       width="24.190489"
       height="24.190489"
       x="14.961901"
       y="166.77162" />
    <rect
       style="opacity:1;vector-effect:none;fill:#fe491b;fill-opacity:1;stroke:none;stroke-width:0.12450987;stroke-linecap:butt;stroke-linejoin:miter;stroke-miterlimit:4;stroke-dasharray:none;stroke-dashoffset:0;stroke-opacity:1"
       id="rect815-3"
       width="24.190489"
       height="24.190489"
       x="39.15239"
       y="166.77162" />
    <rect
       style="opacity:1;vector-effect:none;fill:#f8b732;fill-opacity:1;stroke:none;stroke-width:0.12450987;stroke-linecap:butt;stroke-linejoin:miter;stroke-miterlimit:4;stroke-dasharray:none;stroke-dashoffset:0;stroke-opacity:1"
       id="rect815-3-6"
       width="24.190489"
       height="24.190489"
       x="63.34288"
       y="166.77162" />
    <rect
       style="opacity:1;vector-effect:none;fill:#e0dce4;fill-opacity:1;stroke:none;stroke-width:0.12450987;stroke-linecap:butt;stroke-linejoin:miter;stroke-miterlimit:4;stroke-dasharray:none;stroke-dashoffset:0;stroke-opacity:1"
       id="rect815-3-6-7"
       width="24.190489"
       height="24.190489"
       x="87.533363"
       y="166.77164" />
    <flowRoot
       transform="matrix(0.22875438,0,0,0.27455106,0.45213912,-5.8605872)"
       xml:space="preserve"
       id="flowRoot1315"
       style="font-style:normal;font-weight:normal;font-size:40px;line-height:1.25;font-family:sans-serif;letter-spacing:0px;word-spacing:0px;fill:#000000;fill-opacity:0.8745098;stroke:none"><flowRegion
         id="flowRegion1317"
         style="fill:#000000;fill-opacity:0.8745098"><rect
           id="rect1319"
           width="326.35919"
           height="70.854774"
           x="141.49797"
           y="509.52206"
           style="fill:#000000;fill-opacity:0.8745098" /></flowRegion><flowPara
         id="flowPara1321"
         style="font-style:normal;font-variant:normal;font-weight:normal;font-stretch:normal;font-family:pacifico;-inkscape-font-specification:pacifico;fill:#000000;fill-opacity:0.8745098">Kattendroom</flowPara></flowRoot>    <path
       style="opacity:1;vector-effect:none;fill:#000000;fill-opacity:0.8745098;stroke:none;stroke-width:0.29087436;stroke-linecap:butt;stroke-linejoin:miter;stroke-miterlimit:4;stroke-dasharray:none;stroke-dashoffset:0;stroke-opacity:1"
       id="path854"
       d="m 37.853492,144.99003 c 2.770606,0.0901 5.543445,0.13777 8.315344,0.19434 10.366923,0.22776 20.736583,0.18593 31.103909,0.017 2.010415,-0.0443 4.020833,-0.0885 6.031247,-0.13275 0,0 -1.342842,0.8113 -1.342842,0.8113 v 0 c -1.995402,0.035 -3.990803,0.0701 -5.986201,0.10509 -10.627847,0.19956 -21.256938,0.31086 -31.886025,0.44971 -2.987416,0.0571 -5.975562,0.10619 -8.961884,0.19433 0,0 2.726452,-1.63897 2.726452,-1.63897 z"
       inkscape:connector-curvature="0" />
  </g>
</svg>
